<?xml version="1.0" encoding="UTF-8" standalone="no"?>
<svg
   xmlns:dc="http://purl.org/dc/elements/1.1/"
   xmlns:cc="http://creativecommons.org/ns#"
   xmlns:rdf="http://www.w3.org/1999/02/22-rdf-syntax-ns#"
   xmlns:svg="http://www.w3.org/2000/svg"
   xmlns="http://www.w3.org/2000/svg"
   id="svg8"
   version="1.1"
   viewBox="0 0 132.29166 132.29167"
   height="500"
   width="500">
  <defs
     id="defs2" />
  <metadata
     id="metadata5">
    <rdf:RDF>
      <cc:Work
         rdf:about="">
        <dc:format>image/svg+xml</dc:format>
        <dc:type
           rdf:resource="http://purl.org/dc/dcmitype/StillImage" />
        <dc:title></dc:title>
      </cc:Work>
    </rdf:RDF>
  </metadata>
  <g
     transform="translate(0,-164.70832)"
     id="layer1">
    <g
       transform="translate(-1.032426,1.0619406)"
       id="g4503">
      <path
         style="fill:#424874;fill-opacity:1;stroke:none;stroke-width:0.29142201px;stroke-linecap:butt;stroke-linejoin:miter;stroke-opacity:1"
         d="m 69.398491,170.61592 c -18.37737,0.0255 -36.998377,11.01233 -43.244297,33.86529 -13.470496,49.2867 0.02871,71.89067 26.521358,69.24142 8.34454,-0.83445 12.507211,-3.20492 14.318136,-4.75458 l -9.63514,20.0005 h 40.918608 c 0,0 -2.61689,-9.14006 -2.64898,-13.83571 -0.18044,-26.40883 28.113184,-41.36077 13.835724,-78.01117 -6.80411,-17.4662 -23.333775,-26.52896 -40.065409,-26.50575 z m -0.264672,4.13285 c 21.623248,1.1e-4 39.152331,17.52918 39.152441,39.15243 2.1e-4,21.62347 -17.528967,39.1529 -39.152441,39.15301 -21.623694,2e-4 -39.153211,-17.52932 -39.153003,-39.15301 1.12e-4,-21.62347 17.529536,-39.15263 39.153003,-39.15243 z"
         id="path4485" />
      <path
         style="fill:#424874;fill-opacity:1;stroke:none;stroke-width:0.99999994px;stroke-linecap:butt;stroke-linejoin:miter;stroke-opacity:1"
         d="m 272.74026,134.32468 c 4.80111,43.43514 74.58368,70.801 95.83953,38.97382 3.25013,43.65327 -8.91398,64.24387 -31.22046,85.47772 -38.56203,38.68273 6.58889,-33.74259 -23.20205,-65.86201 -2.22751,-2.40161 -24.26337,-23.34912 -43.4196,2.09214 -2.41352,3.20538 0.95046,-13.42938 -3.93213,-12.52678 -7.56429,1.39835 -20.57377,5.42202 -21.76144,6.78015 -8.86428,10.13658 -7.31502,87.80157 -17.07337,88.98791 -31.3395,-9.85035 -59.27116,-44.79319 -63.31644,-86.34486 0,0 38.44942,45.54851 77.78203,-17.17223 39.33261,-62.72074 12.52219,-115.623197 -41.17927,-105.531255 -46.20177,20.463189 -78.32954,82.278285 -68.92698,134.320545 9.37014,51.86284 35.57663,80.06861 61.11371,92.93367 25.53708,12.86506 37.85878,18.84663 58.08632,18.91085 4.35915,-21.50077 6.59626,-93.98577 34.61172,-93.3182 28.01546,0.66757 -7.65059,93.01417 -4.01204,92.5854 C 356.64066,302.51444 416.28287,227.588 387.89919,141.39679 341.88823,29.741827 267.93914,90.889545 272.74026,134.32468 Z m 81.78755,23.00858 c -11.13981,22.01415 -64.47018,-20.19835 -45.39971,-45.31755 19.07046,-25.119197 56.53953,23.3034 45.39971,45.31755 z M 220.82635,106.4809 c 26.12676,8.97207 -2.49429,71.50951 -33.94777,63.1992 -31.45348,-8.3103 7.82101,-72.17127 33.94777,-63.1992 z"
         id="path4490"
         transform="matrix(0.26458333,0,0,0.26458333,0,164.70832)" />
    </g>
  </g>
</svg>
